:SAMPLES-PER-SECOND 24
:FULLY-SPECIFIED
:DEGREES
109
root  -1.30302 39.3119 14.3029 140.323 35.981 141.398
RightUpLeg  -9.45558 15.8157 -20.9295
RightLeg  37.2267 19.1478 14.7638
RightFoot  -0.428714 0.981331 -10.2654
RightToes  -1.74623e-010 0 -2.59999e-017
Spine  0.961942 -2.79135 5.8443
Spine1  9.7625 0.799284 -13.5774
HEad  4.13816 48.0864 -23.4889
LeftShoulder1  2.15485 -3.22516 -25.8786
LeftArm  -22.349 -0.131257 -6.9573
LeftForeArm  139.885 -66.099 -154.531
LeftHand  -0.228141 3.95011 17.7842
RightShoulder  2.56984 5.1212 23.6532
RightArm  11.0979 24.5651 42.8009
RightForeArm  46.9864 75.3138 41.5829
RightHand  -0.270448 -1.57592 -8.07409
LeftUpLeg  -49.7269 33.6894 -6.01525
LeftLeg  99.4218 2.24834 -12.3166
LeftFoot  25.6863 4.56569 -14.0647
LeftToes  -6.27559e-011 -2.10356e-011 8.24929e-012
110
root  -1.94463 39.8803 12.8334 124.781 37.9805 119.592
RightUpLeg  -15.4696 4.994 -33.7986
RightLeg  37.7296 12.9467 10.35
RightFoot  -0.0820869 1.24723 -12.5965
RightToes  -1.74623e-010 0 -2.59999e-017
Spine  3.85801 0.589925 8.56844
Spine1  8.26918 7.41805 -25.6204
HEad  1.08908 48.716 -28.2962
LeftShoulder1  2.2612 -3.36762 -26.7945
LeftArm  -20.6272 8.38879 -4.69103
LeftForeArm  141.719 -63.2281 -157.634
LeftHand  -0.264448 3.57083 16.4231
RightShoulder  2.30883 5.15675 20.3044
RightArm  27.1403 37.7341 63.7833
RightForeArm  34.6983 68.5757 25.789
RightHand  -0.377572 1.34287 -6.64296
LeftUpLeg  -61.8872 44.7109 -9.48836
LeftLeg  106.861 4.24264 -13.0172
LeftFoot  29.1493 7.00549 -19.3013
LeftToes  -6.27559e-011 -2.10356e-011 8.24929e-012
111
root  -2.55974 40.5603 10.9672 113.287 35.3426 102.063
RightUpLeg  -21.8821 -20.6508 -38.5236
RightLeg  31.3905 6.78361 3.44765
RightFoot  -0.479682 1.26845 -13.3274
RightToes  -1.74623e-010 0 -2.59999e-017
Spine  6.60132 2.92704 12.1308
Spine1  6.53524 11.8344 -33.8
HEad  -3.09629 46.0099 -33.5971
LeftShoulder1  2.44242 -3.63425 -28.1464
LeftArm  -20.0466 15.348 -2.35443
LeftForeArm  141.525 -60.0383 -160.227
LeftHand  -0.332734 2.94012 15.4642
RightShoulder  1.88371 4.87826 15.7531
RightArm  47.3441 45.9158 88.5991
RightForeArm  30.4821 63.6935 20.0655
RightHand  -0.424469 3.53396 -5.7633
LeftUpLeg  -69.8886 52.7443 -6.67682
LeftLeg  113.706 6.40002 -13.659
LeftFoot  36.7453 10.1628 -23.0854
LeftToes  -6.27559e-011 -2.10356e-011 8.24929e-012
112
root  -3.18197 40.9916 9.54749 109.398 27.9386 92.7142
RightUpLeg  -23.8672 -40.2871 -43.3447
RightLeg  17.5503 -2.90332 5.10721
RightFoot  0.0722631 1.62126 -16.0094
RightToes  -1.74623e-010 0 -2.59999e-017
Spine  8.60975 3.2479 10.6598
Spine1  5.83672 13.2278 -38.1606
HEad  -4.79001 41.9559 -38.4206
LeftShoulder1  2.58198 -3.85819 -29.0251
LeftArm  -18.6744 19.9101 -3.1333
LeftForeArm  141.645 -57.1897 -162.189
LeftHand  -0.337216 2.89904 15.4325
RightShoulder  1.46129 4.37413 11.4184
RightArm  66.5846 49.5946 109.554
RightForeArm  29.5105 62.1409 18.7061
RightHand  -0.363506 4.40976 -4.58359
LeftUpLeg  -70.6957 51.4202 5.56861
LeftLeg  113.679 5.56511 -12.2407
LeftFoot  40.0002 11.0626 -23.3539
LeftToes  -6.27559e-011 -2.10356e-011 8.24929e-012
113
root  -3.80803 41.0819 8.51105 109.807 19.7087 88.8695
RightUpLeg  -20.1013 -37.2871 -51.6965
RightLeg  -0.486001 -15.1413 4.63351
RightFoot  4.23584 1.93688 -13.8651
RightToes  -1.74623e-010 0 -2.59999e-017
Spine  9.89979 2.92522 6.98155
Spine1  5.97936 13.2975 -39.593
HEad  -2.95418 38.1537 -39.319
LeftShoulder1  2.65167 -4.07728 -28.9309
LeftArm  -16.018 18.5333 -4.96901
LeftForeArm  142.608 -56.341 -162.791
LeftHand  -0.301863 3.11187 15.0294
RightShoulder  1.24952 3.95214 9.42933
RightArm  80.0184 51.1205 122.497
RightForeArm  31.5023 62.8583 19.1492
RightHand  -0.252227 4.93863 -3.13312
LeftUpLeg  -65.061 44.9767 22.5664
LeftLeg  98.327 0.913682 -6.49291
LeftFoot  39.0066 8.25592 -18.0058
LeftToes  -6.27559e-011 -2.10356e-011 8.24929e-012
114
root  -4.22238 40.4432 8.62642 110.71 13.3261 86.8414
RightUpLeg  -20.6967 -33.1293 -55.15
RightLeg  -6.01087 -18.8994 -1.96709
RightFoot  3.07424 1.00847 -7.51611
RightToes  -1.74623e-010 0 -2.59999e-017
Spine  11.142 2.57646 3.99041
Spine1  7.58812 14.1497 -41.2792
HEad  -0.307909 35.616 -38.5097
LeftShoulder1  2.7012 -4.2261 -28.8983
LeftArm  -14.7934 14.1514 -3.95169
LeftForeArm  141.843 -57.4553 -162.038
LeftHand  -0.29742 2.86048 13.3465
RightShoulder  1.26032 3.95708 9.57773
RightArm  85.6364 51.2911 128.355
RightForeArm  33.3903 63.3502 19.3862
RightHand  -0.203217 5.48826 -2.48162
LeftUpLeg  -53.554 39.0486 35.1427
LeftLeg  62.4353 -1.33996 -2.74392
LeftFoot  38.2643 5.29943 -11.9121
LeftToes  -6.27559e-011 -2.10356e-011 8.24929e-012
115
root  -4.42616 39.883 8.42955 111.074 10.0292 85.7312
RightUpLeg  -25.1161 -35.185 -57.7005
RightLeg  0.570321 -19.3017 -4.32817
RightFoot  -2.41124 0.209638 -3.14131
RightToes  -1.74623e-010 0 -2.59999e-017
Spine  11.6766 1.81756 5.0111
Spine1  8.74191 14.3427 -41.5858
HEad  2.34121 35.517 -38.8579
LeftShoulder1  2.75027 -4.23542 -29.5028
LeftArm  -15.0145 13.5466 -2.80788
LeftForeArm  140.601 -58.4581 -161.282
LeftHand  -0.296497 2.34351 11.0683
RightShoulder  1.3699 4.28486 10.3545
RightArm  82.4718 49.8654 126.378
RightForeArm  35.5639 65.0497 20.8408
RightHand  -0.199327 5.26699 -2.48117
LeftUpLeg  -37.8686 32.6567 43.0963
LeftLeg  18.7342 2.17923 2.67468
LeftFoot  28.8357 2.82575 -8.21626
LeftToes  -6.27559e-011 -2.10356e-011 8.24929e-012
116
root  -4.64675 39.8945 7.36712 110.747 8.16418 84.0488
RightUpLeg  -28.0211 -39.4963 -59.7348
RightLeg  1.71719 -16.6353 -3.07294
RightFoot  -2.57377 0.105985 -1.60648
RightToes  -1.74623e-010 0 -2.59999e-017
Spine  11.5297 1.50371 6.65035
Spine1  8.43554 13.2717 -39.169
HEad  2.21967 35.8057 -38.3406
LeftShoulder1  2.77933 -4.24807 -29.8252
LeftArm  -15.1418 15.371 -4.40744
LeftForeArm  140.769 -58.1702 -161.487
LeftHand  -0.263662 2.14592 9.20721
RightShoulder  1.50498 4.38451 12.0195
RightArm  72.7887 49.2452 115.988
RightForeArm  43.7977 70.9743 28.8717
RightHand  -0.160394 4.28395 -2.20011
LeftUpLeg  -33.3159 31.868 44.5949
LeftLeg  7.8894 3.46049 4.49202
LeftFoot  23.2742 2.08149 -7.12644
LeftToes  -6.27559e-011 -2.10356e-011 8.24929e-012
117
root  -4.99568 39.7607 6.63793 108.863 6.7608 80.5072
RightUpLeg  -33.2343 -40.4583 -58.9825
RightLeg  2.69268 -12.7215 -4.17669
RightFoot  -2.78789 -0.0750229 0.74926
RightToes  -1.74623e-010 0 -2.59999e-017
Spine  11.928 1.79348 6.30145
Spine1  9.08084 13.0179 -37.1444
HEad  -3.5847 34.8074 -37.8452
LeftShoulder1  2.76262 -4.25639 -29.5671
LeftArm  -16.0123 14.9175 -5.76468
LeftForeArm  140.034 -58.3435 -161.312
LeftHand  -0.249235 2.00374 8.34027
RightShoulder  1.69203 4.40917 14.5677
RightArm  62.4227 50.9563 103.81
RightForeArm  57.4746 76.4781 44.0234
RightHand  -0.190047 3.77302 -2.66741
LeftUpLeg  -34.1673 30.9392 46.1666
LeftLeg  32.2653 2.92161 2.36582
LeftFoot  27.6521 1.38231 -4.39696
LeftToes  -6.27559e-011 -2.10356e-011 8.24929e-012
